<svg version="1.1" xmlns="http://www.w3.org/2000/svg" viewBox="0 0 834.5 391" width="834.5" height="391">
  <!-- svg-source:excalidraw -->
  
  <defs>
    <style>
      @font-face {
        font-family: "Virgil";
        src: url("https://excalidraw.com/Virgil.woff2");
      }
      @font-face {
        font-family: "Cascadia";
        src: url("https://excalidraw.com/Cascadia.woff2");
      }
    </style>
  </defs>
  <rect x="0" y="0" width="834.5" height="391" fill="#ffffff"></rect><g stroke-linecap="round" transform="translate(10 166) rotate(0 116.5 38.5)"><path d="M-2.18 -0.16 C90.33 -0.09, 185.76 0.39, 234.87 -2.84 M-1.15 -0.7 C85.58 -4.91, 172.28 -3.85, 231.4 1.45 M231.06 2.04 C230.95 20.77, 229.52 49.81, 232.07 80.81 M233.81 -1.01 C233.33 14.09, 231.31 31.69, 234.47 76.98 M230.14 75.21 C169.03 72.66, 100.61 74.23, 1.02 77.44 M231.75 77.78 C141.75 75.69, 50.83 75.28, 0.38 77.51 M0.42 76.61 C5.07 51.04, 2.13 18.49, 2.34 0.32 M0.29 75.48 C0.83 54.5, -2.44 27.61, 0.18 -0.87" stroke="#000000" stroke-width="1" fill="none"></path></g><g transform="translate(15 192) rotate(0 111.5 12.5)"><text x="111.5" y="18" font-family="Virgil, Segoe UI Emoji" font-size="20px" fill="#000000" text-anchor="middle" style="white-space: pre;" direction="ltr">OpenTracing</text></g><g stroke-linecap="round" transform="translate(12.5 297.5) rotate(0 116.5 38.5)"><path d="M0.66 3.21 C75.84 1.12, 147.72 6.63, 231.52 0.4 M-0.68 -0.59 C72.4 3.74, 147.9 2.89, 232.19 1.21 M229.09 0.93 C230.6 19.53, 230.44 38.99, 232.53 78.89 M231.62 -0.67 C231.45 23.66, 234.26 46.18, 233.95 77.57 M232.74 77.03 C185.44 77.27, 136.18 72.85, -1.95 77.31 M233.3 78.38 C178.03 73.86, 121.79 75.11, -0.69 78.2 M1.65 80.64 C-1 53.39, 3.78 27.38, 3.59 0.97 M-1.89 78.62 C-2.06 58.41, 0.04 37.09, -0.23 -1.09" stroke="#000000" stroke-width="1" fill="none"></path></g><g transform="translate(17.5 323.5) rotate(0 111.5 12.5)"><text x="111.5" y="18" font-family="Virgil, Segoe UI Emoji" font-size="20px" fill="#000000" text-anchor="middle" style="white-space: pre;" direction="ltr">OpenCensus</text></g><g stroke-linecap="round" transform="translate(385 10) rotate(0 84 185.5)"><path d="M-2.12 1.56 C57.97 -4.6, 126.24 -3.74, 168.85 1.28 M-1.57 -1.46 C33.04 2.72, 68.72 2.53, 167.64 0.23 M167.3 -1.75 C167.44 117.84, 167.59 238.69, 168.11 369.27 M168.48 0.74 C168.64 88.08, 166.5 176.96, 167.54 372.22 M170.18 371.42 C122.52 369.81, 79.51 374.69, -1.94 374.91 M168.31 369.25 C126.5 368.06, 90.87 368.68, -1.98 369.23 M-0.58 371.56 C3.69 237.27, 0.37 98.78, 1.48 -0.21 M-0.81 370.7 C3.25 282.02, 4.8 193.52, 0.61 0.19" stroke="#000000" stroke-width="1" fill="none"></path></g><g transform="translate(390 183) rotate(0 79 12.5)"><text x="79" y="18" font-family="Virgil, Segoe UI Emoji" font-size="20px" fill="#000000" text-anchor="middle" style="white-space: pre;" direction="ltr">OpenTelemetry</text></g><g stroke-linecap="round"><g transform="translate(244.6884422110553 199.78750942694546) rotate(0 70.33797199302825 29.392888633331836)"><path d="M1.2 -2.28 C23.96 7.06, 114 48.34, 136.98 58.36 M-1.59 2.65 C22.01 12.12, 119.12 51.55, 142.27 61.07" stroke="#000000" stroke-width="1" fill="none"></path></g><g transform="translate(244.6884422110553 199.78750942694546) rotate(0 70.33797199302825 29.392888633331836)"><path d="M109.03 56.98 C119.32 60.07, 128.01 61.43, 140.64 61.82 M111.81 58.7 C120.5 59.32, 129.36 62.13, 140.86 62.37" stroke="#000000" stroke-width="1" fill="none"></path></g><g transform="translate(244.6884422110553 199.78750942694546) rotate(0 70.33797199302825 29.392888633331836)"><path d="M116.78 37.98 C124.95 47.12, 131.19 54.46, 140.64 61.82 M119.57 39.7 C125.97 45.81, 132.59 54.12, 140.86 62.37" stroke="#000000" stroke-width="1" fill="none"></path></g></g><g stroke-linecap="round"><g transform="translate(249 341) rotate(0 69.89737469404935 -30.46614354342225)"><path d="M1.91 -2.54 C24.3 -12.17, 112.5 -49.79, 135.34 -59.52 M-0.5 2.26 C22.63 -7.96, 117.27 -51.82, 140.3 -63.19" stroke="#000000" stroke-width="1" fill="none"></path></g><g transform="translate(249 341) rotate(0 69.89737469404935 -30.46614354342225)"><path d="M115.62 -45.61 C130.1 -47.89, 135.1 -53.93, 137.39 -66.01 M119.38 -42.55 C123.12 -46.2, 130.02 -52.37, 138.51 -63.4" stroke="#000000" stroke-width="1" fill="none"></path></g><g transform="translate(249 341) rotate(0 69.89737469404935 -30.46614354342225)"><path d="M106.81 -64.14 C124.01 -60.34, 131.96 -60.17, 137.39 -66.01 M110.57 -61.08 C116.85 -59.57, 126.19 -60.6, 138.51 -63.4" stroke="#000000" stroke-width="1" fill="none"></path></g></g><g stroke-linecap="round" transform="translate(15.5 19.5) rotate(0 106.5 38.5)"><path d="M0.53 0.26 C82.06 0.13, 161.54 3.85, 214.87 -0.48 M-0.21 0.4 C47.14 3.83, 95.39 3.71, 213.5 0.62 M216.35 -3.62 C213.73 18.59, 211.37 39, 216.41 74.98 M211.7 -0.61 C214.29 24.58, 213.88 46.49, 212.04 76.57 M214.52 76.27 C158.62 80.47, 109.54 79.8, 1.97 79.24 M214.71 75.6 C138.04 82.26, 61.31 79.64, -1.51 77.2 M3.49 73.6 C3.8 54.19, 3.04 32.73, -0.22 1 M-0.25 77.35 C1.83 57.56, 2.03 41.32, 1.53 -0.62" stroke="#000000" stroke-width="1" fill="none"></path></g><g transform="translate(20.5 45.5) rotate(0 101.5 12.5)"><text x="101.5" y="18" font-family="Virgil, Segoe UI Emoji" font-size="20px" fill="#000000" text-anchor="middle" style="white-space: pre;" direction="ltr">OpenMetrics</text></g><g stroke-linecap="round"><g transform="translate(379.9346733668342 141.12310918980114) rotate(0 -76.28521205211086 -42.232358266971886)"><path d="M-2.38 2.43 C-27.76 -11.79, -128.72 -68.35, -154.1 -82.92 M1.53 1.29 C-22.76 -12.51, -123.43 -73.02, -148.5 -86.9" stroke="#000000" stroke-width="1" fill="none"></path></g><g transform="translate(379.9346733668342 141.12310918980114) rotate(0 -76.28521205211086 -42.232358266971886)"><path d="M-115.49 -83.73 C-123.3 -86.25, -133.2 -83.61, -150.95 -87.2 M-117.25 -82.67 C-126.37 -82.09, -136.08 -85.47, -149.46 -88.21" stroke="#000000" stroke-width="1" fill="none"></path></g><g transform="translate(379.9346733668342 141.12310918980114) rotate(0 -76.28521205211086 -42.232358266971886)"><path d="M-125.79 -65.99 C-131.48 -72.51, -138.95 -74.05, -150.95 -87.2 M-127.55 -64.92 C-133.37 -69.98, -139.83 -78.97, -149.46 -88.21" stroke="#000000" stroke-width="1" fill="none"></path></g></g><g stroke-linecap="round" transform="translate(585.5 30.5) rotate(0 116.5 28)"><path d="M0 0 C0 0, 0 0, 0 0 M0 0 C0 0, 0 0, 0 0 M-0.32 4.9 C2.38 5.54, 1.74 4.32, 6.5 -0.93 M-0.41 5.88 C1.06 5.41, 1.51 3.74, 4.88 0.02 M-1.4 14.86 C4.59 10.75, 8.87 4.63, 7.93 2.01 M-0.26 11.16 C3.77 9.87, 8.01 6.04, 9.83 0.54 M3.6 14.67 C2.61 9.13, 12.05 8.24, 17.06 -2.71 M1.63 18.66 C6.35 11.11, 10.71 4.82, 15.15 -0.23 M1.2 20.51 C7.74 18.66, 6.15 16.76, 18.06 0.87 M-1.55 22.8 C4.36 18.59, 9.48 13.47, 22.87 1.68 M-3.79 31.05 C6.73 20.62, 20.82 5.72, 24.01 -2.01 M-1.66 32.24 C10.06 17.67, 19.84 4.67, 25.49 0.68 M3.32 33.31 C10.98 22.44, 27.09 4.55, 28.94 1.55 M-0.28 37.5 C11.58 24.26, 21.25 12.61, 32.45 0.99 M1.89 42.45 C10.1 25.62, 22.31 17.29, 35.03 3.49 M1.66 43.52 C12.44 25.81, 28.89 13.42, 35.17 -0.66 M-0.95 48.95 C10.28 38, 23.28 25.59, 38.96 -2.34 M0.33 48.52 C8.4 36.03, 18.79 24.08, 40.71 1.54 M-0.53 58.19 C13.93 34.85, 35.02 15.21, 43.83 2.71 M2.07 53.29 C10.44 42.64, 25.6 25.92, 48.98 1.02 M3.83 54.34 C19.15 42.24, 29.45 29.11, 53.49 -3.06 M3.17 56.74 C17.01 43.28, 33.25 24.52, 54.39 -0.57 M5.3 61.99 C23.58 48.08, 34.28 34.14, 60.44 -2.76 M5.64 59.23 C19.69 41.43, 37.22 25.18, 59.06 1.15 M12.68 61.29 C28.15 42.7, 43.36 27.97, 64.22 1.86 M13.72 57.41 C32.64 37.78, 50.48 14.74, 62.53 -2.1 M18.86 61.07 C31.34 42.9, 41.53 32.21, 67.22 -2.61 M17.59 58.99 C27.99 44.4, 40.27 31.89, 66.89 -0.7 M27.84 57.41 C36.7 45.13, 44.43 35.41, 77.15 -2.45 M25.74 57.05 C37.55 41.5, 54.71 25.53, 74.52 1.38 M30.64 60.6 C43.42 42.74, 57.15 26.87, 78.82 2.14 M28.18 58.63 C43.86 39.16, 57.54 24.03, 81.27 1.21 M35.69 57.93 C46.21 39.94, 61.09 24.95, 84.59 -4.16 M36.15 59.27 C46.23 44.97, 60.08 33.17, 86.12 1.41 M36.69 56.65 C50.71 43.41, 71.54 25.55, 90.2 3.16 M41.28 59.58 C57.88 40.44, 72.74 18.64, 88.39 0.76 M42.97 54.78 C51.46 42.64, 64.75 33.27, 93.17 -0.75 M43.26 55.82 C64.06 35.08, 82.11 15.05, 97.41 -1.28 M47.4 60 C66.67 43.93, 80.97 24.6, 96.66 -3.18 M49.08 56.44 C68 36.9, 85.88 16.46, 101.73 2.01 M56.71 60.55 C69.07 46.87, 77.86 33.32, 103.84 -3.03 M56.68 56.64 C73.16 38.71, 88.12 21.96, 106.81 1.18 M59.44 60.09 C76.88 40.13, 100.27 17.43, 113.78 -3.86 M62.15 58.96 C73.89 43.55, 84.54 27.93, 112.16 1.16 M63.6 57.31 C82.09 42.08, 94.88 31.91, 115.17 1.66 M66.75 56.56 C76.82 46.54, 89.24 33.98, 116.44 -1.42 M67.83 61.06 C78.38 42.71, 96.91 33.71, 125.47 2.88 M71.38 58.05 C93.1 36.05, 111.36 14.65, 121.87 0.57 M76.6 61.52 C89.81 36.88, 103.5 20.38, 130.06 2.37 M77.09 58.3 C89.61 44.1, 101.32 32.6, 128.73 1.6 M85.87 61.74 C97.96 32.25, 120.89 14.39, 135.96 3.45 M82.02 59.76 C97.51 42.9, 108.68 24.82, 134.39 -1.24 M87.03 60.61 C104.17 43.99, 121.86 25.02, 139.71 -2.87 M86.71 59.01 C106.66 37.16, 125.07 15.87, 136.49 0.34 M93.2 59.65 C101.47 44.74, 118 23.63, 141.77 -3.04 M91.66 59.32 C110.41 37.98, 127.68 15.43, 144.62 0.39 M95.17 61.94 C114.6 44.33, 128.49 25.3, 146.33 1.89 M98.61 57.24 C113.26 39.04, 128.56 19.23, 147.52 -0.7 M103.74 54.98 C125.39 36.84, 145.66 12.46, 151.75 -0.8 M104.21 59.11 C121.18 38.46, 137.11 20.8, 152.77 -1.7 M105.61 57.56 C124.94 41.09, 144.21 18.14, 158.4 -0.7 M109.16 59.69 C119.13 44.22, 130.96 32.74, 157.97 0.13 M113.75 54.62 C122.23 46.53, 134.1 33.09, 167.05 -1.34 M111.95 58.65 C123.02 43.7, 132.6 31.69, 166.42 -0.53 M115.27 60.19 C137.74 38.05, 161.36 13.71, 170.74 -1.33 M118.04 59.21 C130.39 44.23, 145.21 30.05, 170.33 -0.36 M121.8 60.16 C138.16 38.49, 156.13 22.52, 177.15 0.5 M125.51 56.63 C143.66 38.23, 158.38 20.06, 174.48 -0.95 M133.36 59.27 C143.87 46.84, 154.36 28.81, 176.48 0.02 M130.29 56.83 C141.86 42.17, 155.2 28.38, 179.43 -0.18 M132.76 55.86 C148.8 45.14, 164.94 25.79, 187.83 -1.4 M135.83 56.91 C157.16 32.91, 173.54 12.49, 185.2 -1.68 M137.42 56.89 C157.32 35.26, 173.97 18.54, 187.06 -1.94 M138.3 59.72 C161.17 34.68, 181.13 13.4, 190.46 1.77 M145.81 60.67 C156.7 46.06, 165.15 31.69, 193.18 3.48 M144.23 58.46 C159.5 43.78, 173.1 24.77, 196.19 -1.25 M149.29 55.85 C163.97 37.38, 180.24 25.61, 204.23 2.17 M151.78 59.21 C169.67 35.91, 191.17 16.27, 200.93 -0.21 M158.47 60.23 C174.12 32.83, 198.62 11.52, 203.62 -1.6 M156.36 57.47 C171.08 39.07, 187.6 23.1, 208.4 -0.06 M159.12 55.65 C175.17 45.45, 187.86 25, 208.04 0.43 M159.82 56.78 C174.2 43.53, 186.44 26.61, 210.72 -0.69 M170.53 58.86 C183.98 39.93, 193.79 29.88, 217.85 -0.74 M168.19 57.23 C184.3 37.05, 203.3 14.58, 216.1 1.66 M169.39 56.44 C193.93 35.56, 212.98 14.38, 224.89 3.6 M172.82 58.07 C189.59 39.91, 204.66 19.83, 224.03 -1.07 M179.48 60.34 C192.56 43.89, 210.58 25.13, 226.91 2.68 M175.43 58.97 C188.18 45.72, 199.96 32.95, 228.94 -2.17 M182.88 55.09 C200.49 42.04, 211.69 25.88, 235.45 1.15 M184.55 58.88 C198.08 39.41, 213.99 20.75, 231.42 0.4 M187.07 60.86 C198.35 46.49, 214.64 30.08, 236.25 4.74 M186.04 56.81 C196.25 46.52, 206.47 36.09, 231.99 5.32 M190.68 57.14 C201.96 45.93, 219.64 30.17, 232.23 9.27 M194.09 59.17 C202.55 45.84, 209.56 39.34, 233.3 10.69 M199.38 57.56 C208.47 41.77, 220.05 34.08, 234.83 21.92 M198.41 60.29 C204.71 47.94, 214.75 39.58, 232.87 18.87 M200.21 56.82 C209.45 46.1, 222.71 39.37, 230.38 23.49 M203.91 57.03 C213.2 50.11, 220.12 40.38, 232.73 24.55 M209.48 57.53 C220.17 47.33, 226.74 39.93, 235.21 27.6 M209.9 57.34 C212.96 50.15, 220.15 46.05, 231.85 29.57 M215.17 57.07 C217.38 52.35, 228.89 44.33, 234.85 39.8 M213.78 58.75 C217.76 51.91, 222.95 45.7, 232.62 35.7 M216.75 58.51 C226.64 53.86, 231.16 46.51, 229.68 45.15 M218.21 57.05 C223.02 56.2, 225.05 52.64, 231.92 43.97 M224.25 57.67 C226.16 53.91, 230.2 52.8, 234.18 50.26 M226.18 57.23 C227.78 55.22, 229.98 52.6, 232.58 47.92 M230.33 58.86 C230.6 57.4, 232.6 57.16, 232.29 54.52 M230.44 58.6 C230.68 57.51, 232.04 56.4, 232.82 54.96" stroke="#40c463" stroke-width="0.5" fill="none"></path><path d="M-2.2 -2.56 C93.6 -1.62, 184.46 -2.03, 233.48 2.52 M0.51 -1.29 C48.6 -2.24, 99.53 -2.04, 233.54 1.19 M232.38 -3.66 C230.73 17.46, 233.36 31.46, 229.36 56.59 M234.89 0.92 C234.93 18.24, 235.53 34.1, 233.76 56.84 M233.58 56.48 C159.85 55.95, 82.9 55.1, -0.18 57.64 M232.93 54.63 C176.82 56.21, 118.68 56.15, -0.83 55.65 M-1.65 56.72 C1.31 37.35, -0.5 19.81, -0.32 -2.39 M0.17 56.72 C-0.34 43.56, 1.66 26.86, -0.28 0.55" stroke="#000000" stroke-width="1" fill="none"></path></g><g transform="translate(590.5 46) rotate(0 111.5 12.5)"><text x="111.5" y="18" font-family="Virgil, Segoe UI Emoji" font-size="20px" fill="#000000" text-anchor="middle" style="white-space: pre;" direction="ltr">Tracing</text></g><g stroke-linecap="round" transform="translate(588.5 159) rotate(0 116.5 28)"><path d="M0 0 C0 0, 0 0, 0 0 M0 0 C0 0, 0 0, 0 0 M0.85 7.02 C-0.12 3.65, 1.69 2.39, 6.36 0.73 M-0.46 5.6 C0.56 5.43, 3.06 3.75, 5.77 0.2 M3.16 10.64 C1.37 9.33, 7.5 5.74, 7.71 2.85 M0.73 12.03 C3.99 9.62, 4.67 5.35, 9.79 0.44 M-0.26 19.44 C3.27 11.83, 6.31 12.5, 12.05 1.39 M0.45 19.2 C4.96 13.38, 6.23 8.56, 15.56 -0.84 M2.54 27.37 C10.38 11.3, 15.48 6.14, 22.25 -4.04 M2.06 23.66 C8.86 16.76, 14.47 7.02, 20.72 -0.36 M3.28 30.85 C10.33 20.96, 22.39 6.67, 24.72 1.21 M0.66 28.79 C5.67 20.17, 13.07 11.79, 25.66 0.6 M-2.94 39.09 C10.18 20.65, 20.57 9.45, 33.5 -1.42 M-0.92 36.91 C9.28 23.73, 20.27 10.83, 31.4 1.87 M-1.8 44.79 C13.22 28.21, 21.07 17.48, 33.38 3.95 M0.48 44.1 C10.48 33.14, 18.86 21.4, 38.66 1.14 M3.48 47.39 C14.01 33.35, 29.73 14.21, 42.32 -1.53 M-1.18 49.02 C15.3 35.14, 26.99 19.88, 43.46 0.45 M-2.19 56.55 C14.75 34.3, 26.56 18.3, 47.28 3.48 M1.9 56.21 C19.31 35.94, 35.7 14.11, 48.36 -1.19 M4.77 60.14 C17.1 45.11, 31.86 26.73, 50.62 3.36 M1.15 57.63 C19.06 36.38, 37.42 14.73, 54.1 -1.26 M7.01 57.81 C17.52 45.56, 33.64 36.27, 61.97 -3.61 M9.45 58.04 C18.45 46.15, 26.97 35.82, 58.85 -1.18 M13.5 60.15 C26.35 33.6, 50.74 17.51, 64.61 -2.33 M11.55 59.76 C25.58 47.12, 34.3 33.85, 61.85 0.26 M15.83 61.78 C34.06 33.45, 55.72 10.94, 71.34 1.95 M17.85 59.52 C30.79 45.73, 43.81 30.74, 70.61 -0.51 M27.41 59.97 C44.5 32.74, 57.6 17.08, 74.84 2.52 M22.75 56.7 C41.58 39.17, 57.28 18.27, 72.6 -1.32 M31.26 61.57 C40.57 44.28, 52.35 28.17, 79.58 2.1 M29.84 59.97 C39.37 44, 47.77 33.98, 78.43 -1.67 M38.45 57.81 C58.09 39.87, 77.15 11.29, 84.15 -0.31 M33.65 59.81 C49.1 40.85, 64.19 22.24, 85.57 -0.17 M35.91 55.25 C62.31 39.32, 75.46 14.63, 89.18 1.48 M40.77 59.1 C55.37 43.01, 70.01 24.28, 89.47 2 M44.86 58.57 C69.47 39.46, 85.24 14.86, 95.68 -0.32 M43.55 57.63 C65.53 33.54, 83.5 12.01, 95.33 -0.31 M52.67 61.53 C69.98 33.4, 88.89 14.05, 96.95 -0.58 M49.33 58.75 C65.79 39.12, 82.68 20.45, 101.22 0.32 M55.22 53.81 C72.73 34.5, 93.81 16.9, 108.92 -2.36 M54.06 57.85 C76.09 36.22, 93.12 13.91, 105.8 -1.59 M60.78 59.85 C78.18 36.34, 100.5 13.09, 114.04 1.94 M59.55 56.96 C72.57 43.05, 87.3 28.44, 111.51 0.24 M67.74 58.55 C74.62 44.32, 88.8 29, 114.99 2.21 M66.48 58.06 C82.17 36.89, 102.21 17.55, 115.58 -0.96 M71.75 58.31 C85.5 40.17, 96.8 20.87, 121.86 1.74 M70.83 57.89 C89.89 37.39, 107.26 17.32, 120.52 -0.1 M76.91 56.24 C90.29 44.78, 95.05 35.53, 127.29 -3.6 M74.42 56.76 C95.81 39.6, 112.38 19.81, 126.57 -1.48 M85.45 57.71 C101.13 35.92, 115.03 17.44, 132.18 -1.8 M83.89 57.86 C100.77 37.51, 116.82 16.21, 132.77 -1.43 M89.6 55.28 C107.51 39.24, 125.28 18.08, 133.58 2.22 M85.89 59.86 C97.37 44.24, 108.46 30.87, 138.08 2.22 M94.01 55.53 C104.77 38.46, 123.51 18.59, 143.06 1.41 M90.79 59.38 C104.47 44.7, 116.06 31.43, 143.13 -1.3 M99.6 57.99 C112.5 41.93, 126.82 28.29, 150.57 1.57 M95.86 59.66 C108.75 43.03, 122.81 29.28, 147.39 -1.1 M101.92 57.95 C113.29 41.3, 133.72 26.29, 150.86 -3.87 M104.95 57.06 C121.3 38.9, 138.66 17.06, 154.82 -0.12 M107.04 57.38 C123.55 40.3, 144.85 18.59, 155.31 -2.92 M107.69 57.65 C124.69 37.3, 141.43 19.76, 159.12 -0.52 M113.95 59.81 C129.4 46.9, 141.89 28.47, 162.3 1.81 M115.14 59.72 C131.82 37.68, 151.57 17.84, 165.38 0.85 M122.37 57.16 C134.24 36.62, 155.8 14.66, 169.12 0.03 M119.03 58.44 C135.33 42.82, 147.5 24.72, 171.26 -0.95 M123.2 56.67 C132.77 43.59, 147.01 29.74, 174.35 -3.41 M123.44 56.31 C135.1 43.68, 146.85 29.1, 176.72 1.54 M130.34 59.72 C145.34 39.57, 164.85 23.42, 181.68 2.41 M127.93 59.82 C142.59 43.51, 159.08 24.94, 181.13 -1.17 M139.08 56.75 C149.59 46.75, 161.42 30.76, 186.34 1.3 M135.3 57.94 C150.65 39.05, 164.54 24.57, 185.07 0.99 M142 62.13 C156.3 40.21, 172.25 14.08, 186.95 -3.11 M138.74 58.73 C158.1 37.76, 173.74 18.94, 191.39 0.23 M143.31 60.99 C158.95 45.5, 168.26 28.75, 195.89 3.46 M145.52 55.87 C161.59 39.11, 180.42 18.78, 195.02 -0.57 M150.74 60.16 C173.13 34.91, 184.06 18.88, 203.21 -3.17 M152.18 57.25 C160.65 45.03, 173.01 35.36, 200.05 -1.22 M157.91 58.99 C170.28 38.44, 181.89 27.77, 210.95 1.25 M156.23 59.52 C173.55 36.68, 192.25 18.65, 205.5 0.24 M160.24 60.26 C177.55 46.42, 186.41 28.35, 213.05 0.27 M163.3 56.64 C181.49 36.66, 201.07 11.51, 210.45 -1.81 M169.24 57.04 C179.16 41.58, 194.6 27.76, 213.75 -0.41 M166.89 58.47 C178.95 42.5, 192.94 29.41, 215.78 -0.06 M172.5 59.57 C187.33 39.44, 196.99 25.43, 223.4 1.95 M171.5 59.32 C184.28 43.61, 198.88 31.9, 221.3 0.33 M179.3 58.89 C193.99 44.83, 204.62 23.7, 228.87 -1.97 M175.68 57.22 C195.04 37.75, 214.06 17.75, 227.48 -1.77 M183.84 57.92 C193.87 42.77, 209.33 24.7, 229.45 -2.71 M182.52 58.83 C192.69 45.47, 205.85 31.17, 232.63 -0.8 M188.36 58.69 C203.08 46.28, 213.69 28.15, 233.28 9.64 M188.07 58.15 C197.4 44.5, 209.4 32.96, 232.66 6.74 M196.88 61.83 C205.86 37.24, 223.83 27.3, 232.25 14.47 M194.44 57.9 C208.7 39.13, 222.5 22.39, 233.32 11.05 M195.05 57.55 C210.12 49.07, 216.02 33.12, 229.47 17.87 M198.92 60.05 C211 45.32, 224.28 28.5, 232.93 19.95 M200.56 56.48 C213.53 48.06, 218.73 42.65, 233.49 26.97 M203.7 58.4 C211.6 45.48, 222.94 35.7, 233.95 24.89 M210.98 56.53 C215.58 51.17, 223.12 45.19, 229.54 33.06 M209.06 57.13 C216.62 49.97, 223.38 43.06, 233.53 29.76 M214.14 57.78 C225.35 47.97, 232.01 39.31, 234.64 38.75 M215.06 59.37 C219.23 50.08, 227.33 42.98, 231.9 37.71 M216.03 61.36 C224.86 54.38, 230.34 47.11, 235.31 41.55 M218.71 57.76 C224.83 52.98, 227.26 45.69, 233.46 44.46 M226.39 59.37 C230.18 53.5, 231.3 52.11, 232.13 48.82 M224.27 58.59 C226.18 54.99, 228.31 53.98, 232.38 48.9 M229.45 57.56 C230.33 57.48, 231.83 55.86, 232.31 54.87 M230.03 58.35 C231.02 56.85, 232.39 56.42, 232.53 55.11" stroke="#218bff" stroke-width="0.5" fill="none"></path><path d="M2.95 0.19 C49.18 1.32, 96.88 2.24, 232.17 2.97 M0.26 -1.51 C72.07 2.39, 143.58 4.32, 233.18 0.39 M230.05 3.38 C230.72 12.73, 232.31 24.92, 233.39 52.37 M231.46 1.97 C233.94 14.96, 233.82 26.93, 231.45 54.1 M234.11 53.85 C157.86 55.08, 89.62 59.59, 1.84 53.19 M232.75 54.45 C141.89 54.98, 53.36 55.02, 1.53 57.51 M3.31 52.08 C-2.75 45.85, 1.76 34.58, 2.86 -0.04 M0.1 57.28 C-0.2 38.54, -0.09 18.43, -1.62 0.88" stroke="#000000" stroke-width="1" fill="none"></path></g><g transform="translate(593.5 174.5) rotate(0 111.5 12.5)"><text x="111.5" y="18" font-family="Virgil, Segoe UI Emoji" font-size="20px" fill="#000000" text-anchor="middle" style="white-space: pre;" direction="ltr">Metrics</text></g><g stroke-linecap="round" transform="translate(591.5 289) rotate(0 116.5 28)"><path d="M0 0 C0 0, 0 0, 0 0 M0 0 C0 0, 0 0, 0 0 M1.21 7.8 C2.48 5.82, 3.75 4.29, 3.81 0.03 M0.11 5.74 C1.3 5.2, 3.05 2.84, 5.37 0.06 M2.84 13.13 C2.98 11.32, 6.37 5.67, 12.28 1.89 M-0.26 12.84 C3.55 9.08, 4.85 4.12, 9.12 -0.9 M2.67 17.98 C1.78 12.04, 8.55 9.52, 12.85 -2.73 M0.6 16.8 C3.89 12.57, 8.99 6.04, 14.76 -1.38 M-0.19 25.27 C4.8 16.08, 12.48 15.1, 19.05 -0.09 M-0.55 22.39 C6.74 17.24, 14.08 10.22, 22.88 -1.09 M2.37 32.93 C8.3 23.54, 15.86 9.05, 28.27 0.11 M0.4 30.67 C6.29 20.17, 16.54 13.67, 27.34 0.21 M-0.16 34.5 C11.27 20.32, 25.57 8.42, 28.01 -3.03 M1.17 36.11 C6.92 30.08, 15.17 21.63, 33.58 -0.18 M-1.41 38.78 C13.73 32.41, 24.18 17.68, 39.96 1.99 M1.52 43.52 C13.14 27.83, 22.2 15.11, 37.56 -1.69 M-3.15 45.26 C10.36 32.85, 26.62 15.02, 42.08 2.15 M-2.1 50.74 C14.27 32.77, 31.33 13.9, 41.55 -0.04 M2.11 55.9 C18.8 38.11, 32.25 16.56, 44.27 3.14 M-1.45 53.81 C15.76 35.99, 32.09 21.41, 49.47 -0.8 M5.42 59.31 C24.36 34.57, 43.28 13.81, 50.47 0.36 M1.51 58.41 C12.15 45.05, 24.07 33.91, 54.68 1.03 M9.58 56.62 C27.34 42.68, 42.5 22.19, 54.27 -1.86 M8.46 59.07 C23.59 37.93, 38.54 21.42, 59.29 -0.51 M12.08 60.9 C27.86 43.07, 48.54 21.83, 65.06 -3.19 M11.34 57.83 C30.69 39.65, 47.5 20.12, 61.99 -1.93 M21.22 54.46 C30.58 45.59, 49.22 27.71, 71.67 3.86 M18.21 58.98 C29.26 45.68, 40.87 34.77, 69.36 0.15 M26.96 55.73 C33.07 38.84, 47.36 30.23, 76.44 -2.96 M23.74 59.14 C37.23 42.47, 53.39 26.74, 75.67 1.45 M32.56 54.45 C39.43 40.92, 57.87 28.57, 82.9 -0.5 M30.58 59.82 C47.53 36.75, 63.27 20.32, 78.21 0.48 M36.71 58.73 C52.89 43.92, 66.7 27.11, 81.87 2.89 M35.12 57.77 C48.18 42.52, 61.68 27.63, 85.08 -1.09 M41.13 54.21 C57.74 38.53, 68.19 18.72, 87.07 2.54 M40.81 57.46 C54.57 40.65, 67.22 27.5, 90.51 0.12 M48.71 59.16 C62.27 42.79, 74.37 25.3, 97.29 0.52 M44.01 57.49 C60.73 37.25, 75.95 18.98, 94.7 1.52 M47.13 59.63 C63.12 46.9, 72.89 29.74, 99.98 0.81 M51.26 59.07 C60.64 45.27, 72.96 30.36, 99.08 1.07 M54.99 56.57 C73.54 42.02, 85.57 24.5, 105.36 -3.6 M57.12 56.42 C64.52 45.08, 75.9 33.14, 106.19 -2.32 M57.44 56.94 C79.16 37.96, 95.42 19.32, 110.1 -3.56 M61.47 57.21 C76.61 36.6, 94.7 19.99, 110.92 1.66 M67.63 57.6 C81.09 47.45, 92.33 29.97, 114.74 -1.93 M66.65 57.77 C81.11 43.13, 96.36 24.53, 115.72 -0.09 M73.65 56.67 C78.59 49.22, 89.26 36.58, 122.61 1.85 M70.11 59.75 C87.45 38.72, 104.87 21.5, 121.16 -1.42 M77.37 60.93 C92.33 42.65, 101.72 21.55, 126.76 -0.89 M74.94 56.84 C89.63 40.44, 105.18 25.92, 126.55 -0.2 M80.01 57.66 C99.31 44.33, 109.98 28.22, 131.37 3.8 M81.05 59.92 C94.73 38.99, 112.09 23.32, 131.1 0.84 M85.66 57.8 C97.73 42.08, 114.65 24.18, 135.46 3.68 M88.5 59.53 C99 45.95, 113.15 28.99, 139.17 -1.45 M95.48 59.07 C112.13 34.93, 129.1 11.17, 146.92 -0.64 M93.27 58.29 C115.01 35.61, 132.29 13.46, 142.19 -0.19 M95.29 57.05 C110.82 39.37, 133.08 22.83, 150.23 3.5 M98.65 57.34 C109.73 45.09, 124.4 29.48, 147.86 1.96 M105.7 56.36 C116.21 42.95, 132.88 18.15, 152.5 -0.1 M102.94 56.77 C114.23 44.1, 127.94 31.37, 154.04 -0.79 M105.75 57.79 C122.41 44.35, 128.97 28.56, 159.16 -1.39 M106.88 58.09 C124.22 40.23, 137.86 22.3, 158.04 -0.86 M115 61.34 C120.41 46.13, 134.83 33.85, 164.03 3.1 M113.37 56.62 C133.54 34.8, 151.48 13.93, 166.43 1.08 M117.2 61.45 C130.54 47.64, 143.66 30.8, 173 1.35 M118.84 59.97 C138.11 36.94, 155.48 17.16, 168.33 0.59 M126.39 58.07 C148.09 36.91, 167.45 11.55, 178.11 -3.02 M125.02 56.44 C136.78 44.21, 148.9 33.25, 173.26 -0.17 M126.52 59.8 C141.46 43.61, 153.34 36.24, 181.21 0.38 M130.31 57.5 C140.51 43.35, 151.51 28.14, 180.46 0.11 M137.58 54.99 C153.36 41.28, 166.93 27.95, 184.04 -4.16 M133.53 58.18 C152.84 37.97, 172.13 13.51, 184.63 0.2 M139.23 54.89 C162.97 37.47, 181.92 11.97, 187.92 -3.34 M141.26 59.55 C155.88 36.37, 177.69 15.27, 189.34 0.87 M144.94 56.79 C161.22 35.38, 185.26 17.33, 199.81 -3.7 M147.67 57.12 C160.91 39.94, 178.26 18.13, 196.76 -0.73 M149.58 55.11 C158.87 49.38, 171.71 32.82, 199.97 -0.51 M149.79 59.33 C168.67 39.89, 184.19 21.81, 201.03 1.38 M155.57 60.52 C174.19 37.37, 194.99 18.19, 204.08 -2.68 M155.38 55.9 C169.01 40.38, 185.88 23.18, 206.05 0.47 M160.49 55.13 C182.94 37.82, 201.6 15.01, 214.87 -1.56 M162.18 56.38 C173.42 42.58, 185.42 28.97, 210.77 1.5 M167.22 59.53 C180.62 46.03, 190.99 27.6, 220.22 -3.87 M165.76 58.49 C187.06 37.63, 204.8 15.72, 219.04 -0.43 M171.56 55.97 C187.09 39.58, 206.78 21.07, 224.82 -0.56 M170.83 58.62 C185.71 41.61, 199.66 24.26, 220.91 0.4 M179.7 56.21 C190.72 46.51, 207.7 24.93, 224.27 0.31 M178.4 56.97 C197.14 36.96, 215.51 13.77, 226.44 -1.3 M183.1 60.92 C196.53 42.56, 204.07 34.6, 236.71 -3.3 M184.34 56.28 C197.73 41.48, 215.58 22.15, 235 -1.36 M185.44 55.04 C201.87 38.06, 214.59 27.07, 231.06 6.51 M188.02 58.49 C203 41.06, 216.86 23.14, 231.2 7.09 M192.07 55.63 C202.85 48.59, 210.93 34.82, 233.63 12.83 M193.43 59.94 C207.09 41.79, 220.53 26.56, 233.22 12.17 M201.63 55.05 C213.18 43.23, 224.05 32.04, 231.32 21.43 M198.52 59.82 C206.02 48.91, 216.16 37.99, 231.65 20.06 M204.17 60.03 C210 47.55, 218.96 45.61, 233.67 27.35 M205 58.55 C212.94 48.67, 218.05 41.37, 233.26 22.9 M212.78 58.83 C214.99 53.26, 222.76 47.8, 231.75 30.27 M207.63 58.29 C216.01 46.94, 227.43 37.1, 231.56 29.46 M213.73 60.36 C223.54 47.71, 222.33 42.09, 233.1 37.91 M216.09 57.36 C220.13 53.02, 222.56 48.54, 231.43 37.88 M222.09 61.3 C227.02 51.87, 230.17 44.92, 235.15 41.86 M220.22 58.62 C224.65 54.08, 227.43 45.66, 234.25 42.79 M224.38 59.91 C226.19 55.96, 228.77 52.18, 232.98 48.81 M224.43 56.78 C227.92 55.27, 230.62 50.2, 231.97 48.24 M230.45 59 C230.64 57.04, 232.66 55.6, 232.73 55.46 M230.22 58.43 C230.61 57.16, 231.68 56.55, 232.77 55.58" stroke="#8250df" stroke-width="0.5" fill="none"></path><path d="M-3.01 -0.58 C75.05 -0.72, 146.68 -6.01, 234.4 1.33 M0.53 1.13 C83.03 0.13, 166.48 0.51, 233.92 0.56 M232.93 -2.48 C228.68 12.94, 234.42 29.06, 236.24 58.7 M234 -1.93 C231.07 12.91, 234.21 22.1, 232.08 54.94 M233.03 56.28 C153.53 57.54, 72.27 52.18, -1.86 53.48 M232.67 54.91 C166.92 56.47, 101.01 55.37, 1.42 56.63 M3.63 54.64 C-1.54 38.23, -2.85 9.2, 2.48 -1.14 M-1.27 54.41 C2.99 34.49, 1.01 12.96, 0.8 -0.78" stroke="#000000" stroke-width="1" fill="none"></path></g><g transform="translate(596.5 304.5) rotate(0 111.5 12.5)"><text x="111.5" y="18" font-family="Virgil, Segoe UI Emoji" font-size="20px" fill="#000000" text-anchor="middle" style="white-space: pre;" direction="ltr">Logs</text></g></svg>