<svg version="1.1" xmlns="http://www.w3.org/2000/svg" viewBox="0 0 1491.321642302081 588.4508887367135" width="2982.643284604162" height="1176.901777473427">
  <!-- svg-source:excalidraw -->
  
  <defs>
    <style class="style-fonts">
      @font-face {
        font-family: "Virgil";
        src: url("https://file%2B.vscode-resource.vscode-cdn.net/Users/zirain/.vscode/extensions/pomdtr.excalidraw-editor-3.6.1/public//dist/excalidraw-assets/Virgil.woff2");
      }
      @font-face {
        font-family: "Cascadia";
        src: url("https://file%2B.vscode-resource.vscode-cdn.net/Users/zirain/.vscode/extensions/pomdtr.excalidraw-editor-3.6.1/public//dist/excalidraw-assets/Cascadia.woff2");
      }
    </style>
    
  </defs>
  <rect x="0" y="0" width="1491.321642302081" height="588.4508887367135" fill="#ffffff"></rect><g stroke-linecap="round" transform="translate(626.60999791586 256.3783904486855) rotate(0 94.12213058623877 32.12433381963257)"><path d="M16.06 0 M16.06 0 C72.72 0.3, 130.57 0.2, 172.18 0 M16.06 0 C60.09 -0.21, 105.54 0.16, 172.18 0 M172.18 0 C184.64 0.35, 186.36 6.38, 188.24 16.06 M172.18 0 C183.93 0.23, 187.42 7.45, 188.24 16.06 M188.24 16.06 C188.31 21.06, 188.43 30.15, 188.24 48.19 M188.24 16.06 C188.61 23.32, 187.98 29.6, 188.24 48.19 M188.24 48.19 C189.33 57.14, 183.38 64.63, 172.18 64.25 M188.24 48.19 C187.81 56.77, 182.2 65.38, 172.18 64.25 M172.18 64.25 C119.1 63.83, 63.78 65.66, 16.06 64.25 M172.18 64.25 C111.84 63.88, 52.56 63.13, 16.06 64.25 M16.06 64.25 C5.2 65.75, 1.03 59.63, 0 48.19 M16.06 64.25 C3.83 64.73, 0.33 57.23, 0 48.19 M0 48.19 C-0.56 42.66, -0.23 35.25, 0 16.06 M0 48.19 C0.11 35.84, -0.4 22.67, 0 16.06 M0 16.06 C-1.83 4.21, 4.87 -1.08, 16.06 0 M0 16.06 C1.25 3.34, 5.2 -1.65, 16.06 0" stroke="#1e1e1e" stroke-width="1" fill="none"></path></g><g transform="translate(696.8021510851067 276.00272426831805) rotate(0 23.929977416992188 12.5)"><text x="23.929977416992188" y="0" font-family="Virgil, Segoe UI Emoji" font-size="20px" fill="#2f9e44" text-anchor="middle" style="white-space: pre;" direction="ltr" dominant-baseline="text-before-edge">Nginx</text></g><g stroke-linecap="round" transform="translate(320.7630928633101 512.6635305326465) rotate(0 94.12213058623877 32.12433381963257)"><path d="M16.06 0 M16.06 0 C67.35 0.53, 123 -2.77, 172.18 0 M16.06 0 C49 0.06, 82.2 -1.33, 172.18 0 M172.18 0 C184.11 -1.38, 188.52 6.15, 188.24 16.06 M172.18 0 C180.86 -0.22, 187.59 4.6, 188.24 16.06 M188.24 16.06 C187.28 28.55, 189.36 36.36, 188.24 48.19 M188.24 16.06 C187.35 24.83, 188.44 31.88, 188.24 48.19 M188.24 48.19 C189.38 57.99, 183.81 66.07, 172.18 64.25 M188.24 48.19 C187.15 60.26, 183.09 64.68, 172.18 64.25 M172.18 64.25 C133.24 64.72, 98.42 63.66, 16.06 64.25 M172.18 64.25 C132.72 63.69, 90.95 63.08, 16.06 64.25 M16.06 64.25 C3.9 64.43, 1.98 58.92, 0 48.19 M16.06 64.25 C3.6 65.39, 0.15 59.61, 0 48.19 M0 48.19 C0.74 39.9, 0.85 35.19, 0 16.06 M0 48.19 C0.73 41.21, -0.62 32.72, 0 16.06 M0 16.06 C1.45 4.3, 4.74 1.87, 16.06 0 M0 16.06 C-1.45 3.85, 3.29 0.21, 16.06 0" stroke="#1e1e1e" stroke-width="1" fill="none"></path></g><g transform="translate(385.39525610335744 532.287864352279) rotate(0 29.489967346191406 12.5)"><text x="29.489967346191406" y="0" font-family="Virgil, Segoe UI Emoji" font-size="20px" fill="#f08c00" text-anchor="middle" style="white-space: pre;" direction="ltr" dominant-baseline="text-before-edge">Mimir-1</text></g><g stroke-linecap="round" transform="translate(626.309881799506 513.1446690683895) rotate(0 94.12213058623877 32.12433381963257)"><path d="M16.06 0 M16.06 0 C63.83 0.34, 112.94 -0.61, 172.18 0 M16.06 0 C68.86 -0.18, 122.57 -0.83, 172.18 0 M172.18 0 C182.28 -0.65, 190.02 6.79, 188.24 16.06 M172.18 0 C181.61 -1.15, 186.83 6.72, 188.24 16.06 M188.24 16.06 C188.03 24.59, 187.58 31.77, 188.24 48.19 M188.24 16.06 C188.18 28.81, 187.5 40.24, 188.24 48.19 M188.24 48.19 C187.75 57.56, 183.76 65.69, 172.18 64.25 M188.24 48.19 C188.01 57.95, 182.38 63.81, 172.18 64.25 M172.18 64.25 C108.85 62.16, 49.19 65.59, 16.06 64.25 M172.18 64.25 C125.25 65.33, 77.34 65.34, 16.06 64.25 M16.06 64.25 C5.09 65.09, -1.37 59.84, 0 48.19 M16.06 64.25 C6.32 62.55, -0.05 57.5, 0 48.19 M0 48.19 C-1.99 37.69, -1.14 23.67, 0 16.06 M0 48.19 C-0.69 35.63, 0.75 23.84, 0 16.06 M0 16.06 C-0.53 3.49, 3.62 -0.28, 16.06 0 M0 16.06 C-0.7 5.28, 7.54 0.42, 16.06 0" stroke="#1e1e1e" stroke-width="1" fill="none"></path></g><g transform="translate(686.5320490068384 532.769002888022) rotate(0 33.89996337890625 12.5)"><text x="33.89996337890625" y="0" font-family="Virgil, Segoe UI Emoji" font-size="20px" fill="#f08c00" text-anchor="middle" style="white-space: pre;" direction="ltr" dominant-baseline="text-before-edge">Mimir-2</text></g><g stroke-linecap="round" transform="translate(958.8575937118524 514.2022210974483) rotate(0 94.12213058623877 32.12433381963257)"><path d="M16.06 0 M16.06 0 C62.07 -1.45, 106.12 -0.13, 172.18 0 M16.06 0 C76.26 0.25, 138.06 0.17, 172.18 0 M172.18 0 C184.37 0.79, 187.79 6.49, 188.24 16.06 M172.18 0 C181.85 1.06, 190.33 4.26, 188.24 16.06 M188.24 16.06 C187.09 25.74, 187.77 37.8, 188.24 48.19 M188.24 16.06 C188.06 26.87, 188.29 39.06, 188.24 48.19 M188.24 48.19 C187.72 58.08, 181.15 62.8, 172.18 64.25 M188.24 48.19 C188.46 61.17, 182.91 62.49, 172.18 64.25 M172.18 64.25 C115.93 65.37, 62.8 65.57, 16.06 64.25 M172.18 64.25 C135.3 64.89, 99.29 65.63, 16.06 64.25 M16.06 64.25 C5.92 63, -1.9 60.35, 0 48.19 M16.06 64.25 C4.15 63.54, 2.16 57.45, 0 48.19 M0 48.19 C1.39 42.54, -0.24 31.24, 0 16.06 M0 48.19 C0.01 42.29, 0.23 33.55, 0 16.06 M0 16.06 C0.82 6.99, 6.48 -0.32, 16.06 0 M0 16.06 C-1.04 6.51, 5.75 0.17, 16.06 0" stroke="#1e1e1e" stroke-width="1" fill="none"></path></g><g transform="translate(1019.3897584777785 533.826554917081) rotate(0 33.5899658203125 12.5)"><text x="33.5899658203125" y="0" font-family="Virgil, Segoe UI Emoji" font-size="20px" fill="#f08c00" text-anchor="middle" style="white-space: pre;" direction="ltr" dominant-baseline="text-before-edge">Mimir-3</text></g><g stroke-linecap="round"><g transform="translate(724.9956728951624 327.75838866227997) rotate(0 0.37705333355984294 91.59478275706815)"><path d="M0.73 1 C0.64 31.27, -0.83 151.22, -0.71 181.43 M-0.35 0.48 C-0.06 30.93, 1.2 152.77, 1.47 182.71" stroke="#f08c00" stroke-width="1" fill="none"></path></g><g transform="translate(724.9956728951624 327.75838866227997) rotate(0 0.37705333355984294 91.59478275706815)"><path d="M-7.4 152.94 C-6.91 164.52, -2.48 171.58, 1.19 181.08 M-9.11 153.83 C-4.21 165.82, -0.14 176.85, 1.26 183.6" stroke="#f08c00" stroke-width="1" fill="none"></path></g><g transform="translate(724.9956728951624 327.75838866227997) rotate(0 0.37705333355984294 91.59478275706815)"><path d="M13.12 152.74 C7.73 164.51, 6.29 171.61, 1.19 181.08 M11.41 153.63 C8.44 165.77, 4.64 176.88, 1.26 183.6" stroke="#f08c00" stroke-width="1" fill="none"></path></g></g><mask></mask><g stroke-linecap="round"><g transform="translate(721.0008176672441 332.20296543305443) rotate(0 -161.57926876935494 86.82639124316836)"><path d="M0.21 -0.71 C-31.72 14.01, -138.95 59.85, -192.71 88.91 C-246.47 117.96, -300.72 159.18, -322.35 173.62 M-1.13 1.54 C-32.57 16.33, -136.62 61.24, -190.33 90.05 C-244.04 118.85, -301.34 160.47, -323.37 174.36" stroke="#f08c00" stroke-width="1" fill="none"></path></g><g transform="translate(721.0008176672441 332.20296543305443) rotate(0 -161.57926876935494 86.82639124316836)"><path d="M-306.8 149.13 C-310.41 154.36, -314.64 159.14, -322.04 173.26 M-305 150.9 C-311.29 156.64, -314.88 162.67, -324.17 175.3" stroke="#f08c00" stroke-width="1" fill="none"></path></g><g transform="translate(721.0008176672441 332.20296543305443) rotate(0 -161.57926876935494 86.82639124316836)"><path d="M-295.41 166.2 C-301.45 167.94, -308.02 169.21, -322.04 173.26 M-293.6 167.97 C-303.02 168.96, -309.74 170.31, -324.17 175.3" stroke="#f08c00" stroke-width="1" fill="none"></path></g></g><mask></mask><g stroke-linecap="round"><g transform="translate(725.8456391136215 331.045374698544) rotate(0 166.49807458516614 87.17685754801357)"><path d="M0.98 -0.27 C33.51 13.99, 140.12 55.24, 195.45 84.42 C250.78 113.6, 310.11 159.46, 332.96 174.82 M0.04 -1.46 C32.47 12.53, 139.59 52.98, 195.02 82.52 C250.45 112.07, 309.61 160.46, 332.62 175.81" stroke="#f08c00" stroke-width="1" fill="none"></path></g><g transform="translate(725.8456391136215 331.045374698544) rotate(0 166.49807458516614 87.17685754801357)"><path d="M303.33 169.2 C313.71 171.33, 321.24 173.36, 334.55 174.81 M302.85 168.48 C313.9 170.82, 324.4 172.79, 333.57 175.85" stroke="#f08c00" stroke-width="1" fill="none"></path></g><g transform="translate(725.8456391136215 331.045374698544) rotate(0 166.49807458516614 87.17685754801357)"><path d="M315.39 152.6 C321.73 160.17, 325.37 167.54, 334.55 174.81 M314.91 151.87 C321.36 160.38, 327.36 168.54, 333.57 175.85" stroke="#f08c00" stroke-width="1" fill="none"></path></g></g><mask></mask><g stroke-linecap="round" transform="translate(610.9325036472442 10) rotate(0 119.07464197457352 37.238217167356396)"><path d="M18.62 0 M18.62 0 C73.18 -1.88, 125.7 -2.78, 219.53 0 M18.62 0 C62.62 -1.18, 106.76 -1.53, 219.53 0 M219.53 0 C231.26 1.03, 239.66 5.57, 238.15 18.62 M219.53 0 C230.95 0.44, 236.17 7.9, 238.15 18.62 M238.15 18.62 C237.73 32.25, 236.93 46.54, 238.15 55.86 M238.15 18.62 C237.27 26.05, 239.01 34.87, 238.15 55.86 M238.15 55.86 C238.47 67.64, 233.69 75.59, 219.53 74.48 M238.15 55.86 C238.3 67.24, 231.08 73.12, 219.53 74.48 M219.53 74.48 C149.29 76.52, 81.88 74.33, 18.62 74.48 M219.53 74.48 C171.62 75.56, 124.37 75.13, 18.62 74.48 M18.62 74.48 C5.97 74.73, 1.87 67.67, 0 55.86 M18.62 74.48 C7.19 74.34, 1.53 66.16, 0 55.86 M0 55.86 C-1.91 47.07, -1.34 35.04, 0 18.62 M0 55.86 C1.2 47.93, 0.56 38.57, 0 18.62 M0 18.62 C1.32 4.59, 6.07 1.95, 18.62 0 M0 18.62 C-0.02 5.15, 4.17 0.13, 18.62 0" stroke="#f08c00" stroke-width="1" fill="none"></path></g><g transform="translate(688.2771651530677 34.738217167356396) rotate(0 41.72998046875 12.5)"><text x="41.72998046875" y="0" font-family="Virgil, Segoe UI Emoji" font-size="20px" fill="#f08c00" text-anchor="middle" style="white-space: pre;" direction="ltr" dominant-baseline="text-before-edge">Grafana</text></g><g stroke-linecap="round"><g transform="translate(728.0338009376753 86.54390091404417) rotate(0 -1.1544406701203798 83.89220864052507)"><path d="M0.38 -0.31 C0 27.85, -1.45 141.27, -1.7 169.3 M-0.88 -1.52 C-1.48 26.27, -2.56 139.15, -2.69 167.52" stroke="#1e1e1e" stroke-width="1" fill="none"></path></g><g transform="translate(728.0338009376753 86.54390091404417) rotate(0 -1.1544406701203798 83.89220864052507)"><path d="M-13.25 139.13 C-8.06 149.88, -6.98 160.19, -1.48 166.46 M-12.26 138.86 C-9.56 146.21, -8.16 154.96, -2.46 168.33" stroke="#1e1e1e" stroke-width="1" fill="none"></path></g><g transform="translate(728.0338009376753 86.54390091404417) rotate(0 -1.1544406701203798 83.89220864052507)"><path d="M7.27 139.29 C5.31 150.05, -0.77 160.3, -1.48 166.46 M8.26 139.02 C5.56 146.21, 1.57 154.91, -2.46 168.33" stroke="#1e1e1e" stroke-width="1" fill="none"></path></g></g><mask></mask><g stroke-linecap="round" transform="translate(88.74475243397745 153.20778872778155) rotate(0 175.44883437044092 120.2012683478727)"><path d="M32 0 M32 0 C117.82 -0.32, 200.7 -0.43, 318.9 0 M32 0 C130.8 -0.24, 230.37 -0.59, 318.9 0 M318.9 0 C338.68 -1.39, 349.04 10.58, 350.9 32 M318.9 0 C340.75 -1.46, 352.24 9.28, 350.9 32 M350.9 32 C353.6 97.55, 352.55 164.31, 350.9 208.4 M350.9 32 C352.05 96.47, 352.58 161.71, 350.9 208.4 M350.9 208.4 C350.42 228.11, 340.7 240.89, 318.9 240.4 M350.9 208.4 C351.62 231.21, 339.21 241.51, 318.9 240.4 M318.9 240.4 C205.76 237.92, 92.7 239.65, 32 240.4 M318.9 240.4 C204.49 238.58, 90.06 239.18, 32 240.4 M32 240.4 C9.13 241.04, 1.31 231.65, 0 208.4 M32 240.4 C10.94 238.92, 0.93 228.09, 0 208.4 M0 208.4 C-0.64 148.56, -0.9 85.81, 0 32 M0 208.4 C-0.89 163.93, -0.52 120.13, 0 32 M0 32 C1.2 9.71, 12.18 0.25, 32 0 M0 32 C1.63 11.9, 10.75 -0.8, 32 0" stroke="#1e1e1e" stroke-width="1" fill="none"></path></g><g stroke-linecap="round" transform="translate(1039.2601304075984 144.85455682258012) rotate(0 175.44883437044086 120.2012683478727)"><path d="M32 0 M32 0 C118.63 1.71, 201.5 1.97, 318.9 0 M32 0 C124.68 2.76, 217.79 1.33, 318.9 0 M318.9 0 C339.97 -1.59, 350.78 12.55, 350.9 32 M318.9 0 C340.1 0.43, 351.27 11.56, 350.9 32 M350.9 32 C350.64 70.56, 351.63 107.29, 350.9 208.4 M350.9 32 C351.08 77.58, 350.69 122.84, 350.9 208.4 M350.9 208.4 C352.85 228.64, 339.71 240.3, 318.9 240.4 M350.9 208.4 C353.06 232, 339.58 240.52, 318.9 240.4 M318.9 240.4 C228.21 239.86, 136.35 238.88, 32 240.4 M318.9 240.4 C248.17 238.58, 176.37 238.48, 32 240.4 M32 240.4 C9.32 241.04, 1.5 228.39, 0 208.4 M32 240.4 C11.41 239.63, -0.93 230.46, 0 208.4 M0 208.4 C2.46 160.43, -0.46 107.33, 0 32 M0 208.4 C1.37 161.87, 1.5 114.33, 0 32 M0 32 C1.02 9.5, 10.11 -1.64, 32 0 M0 32 C-1.89 12.16, 11.62 -0.61, 32 0" stroke="#1e1e1e" stroke-width="1" fill="none"></path></g><g transform="translate(206.6141661952542 123.69637061958488) rotate(0 38.309959411621094 12.5)"><text x="0" y="0" font-family="Virgil, Segoe UI Emoji" font-size="20px" fill="#1e1e1e" text-anchor="start" style="white-space: pre;" direction="ltr" dominant-baseline="text-before-edge">Cluster1</text></g><g transform="translate(1158.1442224670257 117.12239854705686) rotate(0 38.309959411621094 12.5)"><text x="0" y="0" font-family="Virgil, Segoe UI Emoji" font-size="20px" fill="#1e1e1e" text-anchor="start" style="white-space: pre;" direction="ltr" dominant-baseline="text-before-edge">Cluster1</text></g><g stroke-linecap="round" transform="translate(228.13201536308696 208.3243516836871) rotate(0 88.63667490398069 36.352160061928714)"><path d="M18.18 0 M18.18 0 C48.42 0.76, 76.77 0.64, 159.1 0 M18.18 0 C66.79 1.23, 115.92 0.16, 159.1 0 M159.1 0 C171.75 -1.84, 175.67 6.54, 177.27 18.18 M159.1 0 C169.27 0.11, 179.4 4.34, 177.27 18.18 M177.27 18.18 C176.83 31.24, 176.71 47.04, 177.27 54.53 M177.27 18.18 C176.59 31.28, 177.57 42.89, 177.27 54.53 M177.27 54.53 C179.16 64.99, 171.74 72.47, 159.1 72.7 M177.27 54.53 C175.94 65.08, 171.8 74.49, 159.1 72.7 M159.1 72.7 C110.78 73.83, 64.27 70.68, 18.18 72.7 M159.1 72.7 C116.7 71.39, 72.59 72.09, 18.18 72.7 M18.18 72.7 C4.36 74.49, -1.59 65.11, 0 54.53 M18.18 72.7 C7.6 73.03, -0.28 64.4, 0 54.53 M0 54.53 C0.12 45.33, -2 37.79, 0 18.18 M0 54.53 C0.38 44.93, -0.04 35.9, 0 18.18 M0 18.18 C0.08 5.95, 7.41 -1.33, 18.18 0 M0 18.18 C2 6.27, 8.11 -1.66, 18.18 0" stroke="#e03131" stroke-width="1" fill="none"></path></g><g transform="translate(261.34875313327854 232.1765117456158) rotate(0 55.41993713378906 12.5)"><text x="55.41993713378906" y="0" font-family="Virgil, Segoe UI Emoji" font-size="20px" fill="#e03131" text-anchor="middle" style="white-space: pre;" direction="ltr" dominant-baseline="text-before-edge">Prometheus</text></g><g stroke-linecap="round" transform="translate(1094.4648226992588 206.05680769345287) rotate(0 88.63667490398063 36.352160061928714)"><path d="M18.18 0 M18.18 0 C51.73 -1.08, 90.27 -1.31, 159.1 0 M18.18 0 C51.61 1.16, 87.05 1, 159.1 0 M159.1 0 C170.54 0.03, 176.78 5.17, 177.27 18.18 M159.1 0 C170.59 -2.1, 179.26 3.98, 177.27 18.18 M177.27 18.18 C177.51 25.1, 175.05 33.73, 177.27 54.53 M177.27 18.18 C176.57 27.7, 178.07 34.94, 177.27 54.53 M177.27 54.53 C176.72 67.65, 172.15 73.42, 159.1 72.7 M177.27 54.53 C178.47 65.87, 173.09 70.73, 159.1 72.7 M159.1 72.7 C122.41 72.36, 83.74 72.93, 18.18 72.7 M159.1 72.7 C117.87 71.64, 74.41 70.68, 18.18 72.7 M18.18 72.7 C7.84 71.45, 1.97 67.35, 0 54.53 M18.18 72.7 C5.94 72.85, -0.13 68.75, 0 54.53 M0 54.53 C0.83 46.29, -0.45 36.41, 0 18.18 M0 54.53 C0.44 45.75, 0.47 37.42, 0 18.18 M0 18.18 C0.52 4.72, 5.78 -1.14, 18.18 0 M0 18.18 C-1.8 4.2, 4.41 0.32, 18.18 0" stroke="#e03131" stroke-width="1" fill="none"></path></g><g transform="translate(1127.6815604694505 229.90896775538158) rotate(0 55.41993713378906 12.5)"><text x="55.41993713378906" y="0" font-family="Virgil, Segoe UI Emoji" font-size="20px" fill="#e03131" text-anchor="middle" style="white-space: pre;" direction="ltr" dominant-baseline="text-before-edge">Prometheus</text></g><g mask="url(#mask-vRHOTT-YTjaJCVmPeOYPp)" stroke-linecap="round"><g transform="translate(411.54583618661997 237.6110182457145) rotate(0 107.82463492887575 24.132812663807215)"><path d="M0.69 -0.53 C36.45 7.69, 179.5 40.3, 214.96 48.79" stroke="#e03131" stroke-width="1.5" fill="none" stroke-dasharray="8 9"></path></g><g transform="translate(411.54583618661997 237.6110182457145) rotate(0 107.82463492887575 24.132812663807215)"><path d="M184.3 54.16 C194.23 50.26, 206.85 50.4, 216.19 49.77" stroke="#e03131" stroke-width="1.5" fill="none"></path></g><g transform="translate(411.54583618661997 237.6110182457145) rotate(0 107.82463492887575 24.132812663807215)"><path d="M188.96 34.18 C197.26 36.93, 208.34 43.69, 216.19 49.77" stroke="#e03131" stroke-width="1.5" fill="none"></path></g></g><mask id="mask-vRHOTT-YTjaJCVmPeOYPp"><rect x="0" y="0" fill="#fff" width="725.4476434334711" height="386.90895280002064"></rect><rect x="457.0368017607291" y="249.75998552286757" fill="#000" width="122.91987609863281" height="25" opacity="1"></rect></mask><g transform="translate(457.0368017607291 249.7599855228675) rotate(0 62.333669354766585 11.983845386654139)"><text x="61.459938049316406" y="0" font-family="Virgil, Segoe UI Emoji" font-size="20px" fill="#e03131" text-anchor="middle" style="white-space: pre;" direction="ltr" dominant-baseline="text-before-edge">remote write</text></g><g mask="url(#mask-yv5YzB67XLDdBTJ_B0Rpw)" stroke-linecap="round"><g transform="translate(1085.9496233661832 244.07810707684507) rotate(0 -135.1740727294415 25.705481941055666)"><path d="M-1.11 -0.99 C-45.92 7.94, -224.26 43.47, -269.24 52.4" stroke="#e03131" stroke-width="1.5" fill="none" stroke-dasharray="8 9"></path></g><g transform="translate(1085.9496233661832 244.07810707684507) rotate(0 -135.1740727294415 25.705481941055666)"><path d="M-245.23 38.27 C-249.66 39.32, -256.27 44.97, -268.47 54.13" stroke="#e03131" stroke-width="1.5" fill="none"></path></g><g transform="translate(1085.9496233661832 244.07810707684507) rotate(0 -135.1740727294415 25.705481941055666)"><path d="M-241.23 58.39 C-246.54 53.99, -254.22 54.23, -268.47 54.13" stroke="#e03131" stroke-width="1.5" fill="none"></path></g></g><mask id="mask-yv5YzB67XLDdBTJ_B0Rpw"><rect x="0" y="0" fill="#fff" width="1456.0449876440287" height="395.8894608165466"></rect><rect x="889.4420031779439" y="257.48378394669584" fill="#000" width="122.91987609863281" height="25" opacity="1"></rect></mask><g transform="translate(889.4420031779441 257.4837839466959) rotate(0 61.333547458797625 12.2998050712049)"><text x="61.459938049316406" y="0" font-family="Virgil, Segoe UI Emoji" font-size="20px" fill="#e03131" text-anchor="middle" style="white-space: pre;" direction="ltr" dominant-baseline="text-before-edge">remote write</text></g><g stroke-linecap="round" transform="translate(10 75.94932563194087) rotate(0 232.9853812486974 177.44960847947124)"><path d="M32 0 M32 0 C185.3 1.33, 339.52 2.9, 433.97 0 M433.97 0 C453.82 -0.3, 465.06 11.96, 465.97 32 M465.97 32 C466.96 123.14, 467.33 215.53, 465.97 322.9 M465.97 322.9 C466.35 342.49, 453.88 355.8, 433.97 354.9 M433.97 354.9 C335.91 356.78, 239.68 357.94, 32 354.9 M32 354.9 C8.91 355.74, -1.08 346.21, 0 322.9 M0 322.9 C0 225.15, 0.92 128.31, 0 32 M0 32 C-1.13 9.09, 11.21 -1.52, 32 0" stroke="#1971c2" stroke-width="1.5" fill="none" stroke-dasharray="8 9"></path></g><g transform="translate(205.12787685711731 49.386667460624636) rotate(0 24.879974365234375 12.5)"><text x="0" y="0" font-family="Virgil, Segoe UI Emoji" font-size="20px" fill="#1971c2" text-anchor="start" style="white-space: pre;" direction="ltr" dominant-baseline="text-before-edge">mesh1</text></g><g stroke-linecap="round" transform="translate(1015.3508798046862 79.99851132878786) rotate(0 232.98538124869742 177.44960847947124)"><path d="M32 0 M32 0 C152.97 1.18, 274.65 -0.43, 433.97 0 M433.97 0 C455.73 -1.49, 466.65 10.72, 465.97 32 M465.97 32 C468.15 114.94, 468.22 195.83, 465.97 322.9 M465.97 322.9 C465.4 343.81, 453.56 355.17, 433.97 354.9 M433.97 354.9 C284.2 357.29, 132.62 357.55, 32 354.9 M32 354.9 C9.85 356.8, 1.39 345.55, 0 322.9 M0 322.9 C1.89 221, 1.64 115.69, 0 32 M0 32 C-1.12 12.32, 10.92 -0.43, 32 0" stroke="#1971c2" stroke-width="1.5" fill="none" stroke-dasharray="8 9"></path></g><g transform="translate(1219.5536963706195 50.8586655551255) rotate(0 29.28997039794922 12.5)"><text x="0" y="0" font-family="Virgil, Segoe UI Emoji" font-size="20px" fill="#1971c2" text-anchor="start" style="white-space: pre;" direction="ltr" dominant-baseline="text-before-edge">mesh2</text></g></svg>